<svg xmlns="http://www.w3.org/2000/svg" width="192" height="192" viewBox="0 0 512 512">
  <rect width="512" height="512" rx="112" fill="#132238"/>
  <circle cx="392" cy="120" r="58" fill="#f0b34d"/>
  <path d="M148 142h145c47 0 79 27 79 69 0 28-15 49-41 60 33 10 54 36 54 72 0 53-41 87-103 87H148V142zm118 118c27 0 43-12 43-32 0-20-16-31-43-31h-51v63h51zm13 115c34 0 54-14 54-39 0-24-20-37-54-37h-64v76h64z" fill="#f8fafc"/>
  <path d="M117 390c42-22 86-35 132-39l-8 49c-41 5-79 16-114 33l-10-43z" fill="#d3692d"/>
</svg>
